<mxfile host="app.diagrams.net" modified="2024-05-30T18:09:28.490Z" agent="Mozilla/5.0 (Windows NT 10.0; Win64; x64) AppleWebKit/537.36 (KHTML, like Gecko) Chrome/125.0.0.0 Safari/537.36" etag="4d7S9GwKY5c9z_KHPk99" version="24.4.10" type="device">
  <diagram name="Page-1" id="ohIboxSNNGGEAigPCeOG">
    <mxGraphModel dx="3000" dy="2714" grid="1" gridSize="10" guides="1" tooltips="1" connect="1" arrows="1" fold="1" page="1" pageScale="1" pageWidth="850" pageHeight="1100" math="0" shadow="0">
      <root>
        <mxCell id="0" />
        <mxCell id="1" parent="0" />
        <mxCell id="Vk9lrVIdMN0YxvAEY-ch-1" value="Anggota" style="rounded=0;whiteSpace=wrap;html=1;" parent="1" vertex="1">
          <mxGeometry x="345" y="-1000" width="120" height="60" as="geometry" />
        </mxCell>
        <mxCell id="Vk9lrVIdMN0YxvAEY-ch-2" value="" style="endArrow=classic;html=1;rounded=0;exitX=0.409;exitY=1.057;exitDx=0;exitDy=0;exitPerimeter=0;" parent="1" source="Vk9lrVIdMN0YxvAEY-ch-1" edge="1">
          <mxGeometry width="50" height="50" relative="1" as="geometry">
            <mxPoint x="395" y="-911.54" as="sourcePoint" />
            <mxPoint x="395" y="-721.54" as="targetPoint" />
          </mxGeometry>
        </mxCell>
        <mxCell id="Vk9lrVIdMN0YxvAEY-ch-3" value="" style="endArrow=classic;html=1;rounded=0;entryX=0.567;entryY=1.017;entryDx=0;entryDy=0;entryPerimeter=0;exitX=0.616;exitY=0.014;exitDx=0;exitDy=0;exitPerimeter=0;" parent="1" target="Vk9lrVIdMN0YxvAEY-ch-1" edge="1">
          <mxGeometry width="50" height="50" relative="1" as="geometry">
            <mxPoint x="412.76" y="-720" as="sourcePoint" />
            <mxPoint x="485" y="-911.54" as="targetPoint" />
          </mxGeometry>
        </mxCell>
        <mxCell id="Vk9lrVIdMN0YxvAEY-ch-4" value="Sistem Informasi Bookuku" style="ellipse;whiteSpace=wrap;html=1;aspect=fixed;" parent="1" vertex="1">
          <mxGeometry x="350" y="-720" width="110" height="110" as="geometry" />
        </mxCell>
        <mxCell id="Vk9lrVIdMN0YxvAEY-ch-5" value="" style="endArrow=classic;html=1;rounded=0;exitX=0;exitY=0.5;exitDx=0;exitDy=0;" parent="1" source="Vk9lrVIdMN0YxvAEY-ch-7" edge="1">
          <mxGeometry width="50" height="50" relative="1" as="geometry">
            <mxPoint x="580" y="-660" as="sourcePoint" />
            <mxPoint x="460" y="-660" as="targetPoint" />
          </mxGeometry>
        </mxCell>
        <mxCell id="Vk9lrVIdMN0YxvAEY-ch-7" value="Calon Anggota" style="rounded=0;whiteSpace=wrap;html=1;" parent="1" vertex="1">
          <mxGeometry x="640" y="-690" width="120" height="60" as="geometry" />
        </mxCell>
        <mxCell id="Vk9lrVIdMN0YxvAEY-ch-8" value="- Katalog buku&lt;div&gt;- Jumlah buku yang tersedia&lt;/div&gt;&lt;div&gt;- Data buku yang sedang dipinjam&lt;/div&gt;&lt;div&gt;- History buku yang sudah dipinjam&lt;/div&gt;" style="text;html=1;align=left;verticalAlign=middle;whiteSpace=wrap;rounded=0;" parent="1" vertex="1">
          <mxGeometry x="480" y="-870" width="200" height="30" as="geometry" />
        </mxCell>
        <mxCell id="Vk9lrVIdMN0YxvAEY-ch-9" value="- Input data untuk pendonasian buku&lt;div&gt;- Peminjaman buku&lt;/div&gt;" style="text;html=1;align=left;verticalAlign=middle;whiteSpace=wrap;rounded=0;" parent="1" vertex="1">
          <mxGeometry x="150" y="-880" width="200" height="30" as="geometry" />
        </mxCell>
        <mxCell id="Vk9lrVIdMN0YxvAEY-ch-10" value="" style="endArrow=classic;html=1;rounded=0;exitX=0.409;exitY=1.057;exitDx=0;exitDy=0;exitPerimeter=0;" parent="1" edge="1">
          <mxGeometry width="50" height="50" relative="1" as="geometry">
            <mxPoint x="395.34" y="-608" as="sourcePoint" />
            <mxPoint x="396.34" y="-392.53999999999996" as="targetPoint" />
          </mxGeometry>
        </mxCell>
        <mxCell id="Vk9lrVIdMN0YxvAEY-ch-11" value="" style="endArrow=classic;html=1;rounded=0;entryX=0.567;entryY=1.017;entryDx=0;entryDy=0;entryPerimeter=0;exitX=0.616;exitY=0.014;exitDx=0;exitDy=0;exitPerimeter=0;" parent="1" edge="1">
          <mxGeometry width="50" height="50" relative="1" as="geometry">
            <mxPoint x="414.09999999999997" y="-391" as="sourcePoint" />
            <mxPoint x="414.34" y="-610" as="targetPoint" />
          </mxGeometry>
        </mxCell>
        <mxCell id="Vk9lrVIdMN0YxvAEY-ch-12" value="HMTI" style="rounded=0;whiteSpace=wrap;html=1;" parent="1" vertex="1">
          <mxGeometry x="345" y="-390" width="120" height="60" as="geometry" />
        </mxCell>
        <mxCell id="Vk9lrVIdMN0YxvAEY-ch-13" value="&lt;div&gt;- Informasi pengguna&lt;/div&gt;&lt;div&gt;- Informasi pengajuan buku&lt;/div&gt;&lt;div&gt;- Informasi peminjaman buku&lt;/div&gt;" style="text;html=1;align=left;verticalAlign=middle;whiteSpace=wrap;rounded=0;" parent="1" vertex="1">
          <mxGeometry x="150" y="-540" width="200" height="30" as="geometry" />
        </mxCell>
        <mxCell id="Vk9lrVIdMN0YxvAEY-ch-16" value="&lt;div&gt;- Data buku yang tersedia&lt;/div&gt;&lt;div&gt;- Data jurnal buku yang tersedia&lt;/div&gt;" style="text;html=1;align=left;verticalAlign=middle;whiteSpace=wrap;rounded=0;" parent="1" vertex="1">
          <mxGeometry x="480" y="-540" width="200" height="30" as="geometry" />
        </mxCell>
        <mxCell id="rD1a4vEl82S5KN_7B5GY-1" value="Input data pendaftaran" style="text;html=1;align=left;verticalAlign=middle;whiteSpace=wrap;rounded=0;" parent="1" vertex="1">
          <mxGeometry x="480" y="-690" width="200" height="30" as="geometry" />
        </mxCell>
      </root>
    </mxGraphModel>
  </diagram>
</mxfile>
